<svg xmlns="http://www.w3.org/2000/svg" viewBox="0 0 42 42"><defs><style>.cls-1{fill:#fff;}</style></defs><g id="Layer_2" data-name="Layer 2"><g id="Layer_1-2" data-name="Layer 1"><rect class="cls-1" width="42" height="42" rx="5"/><path d="M28.51,25.05l-4.24,4.24-6.22-6.22a6,6,0,0,1-3.62-.17,5.9,5.9,0,0,1-2.86-2.21,6,6,0,0,1-1.08-3.45,6.08,6.08,0,0,1,1.11-3.45l3.54,3.54a1,1,0,0,0,.7.29,1,1,0,0,0,.71-.29,1,1,0,0,0,.29-.71,1,1,0,0,0-.29-.71L13,12.38a5.9,5.9,0,0,1,3.44-1.11,6,6,0,0,1,5.83,7.55Zm1.42,1.41.7.71a3,3,0,0,1,0,4.24,3,3,0,0,1-4.24,0l-.71-.71Z"/></g></g></svg>