<svg xmlns="http://www.w3.org/2000/svg" viewBox="0 0 18 20"><defs><style>.cls-1{fill:#fff;}.cls-2{fill:#e94c4c;}</style></defs><g id="Layer_2" data-name="Layer 2"><g id="Layer_1-2" data-name="Layer 1"><g id="Layer_2-2" data-name="Layer 2"><g id="Layer_1-2-2" data-name="Layer 1-2"><path class="cls-1" d="M15,10.29V8.76a5,5,0,0,1-1,.09,5.1,5.1,0,0,1-1-.1v2.44l.67.59a7.09,7.09,0,0,1,2,3.22H2.33a7.06,7.06,0,0,1,2-3.22L5,11.19V6A4,4,0,0,1,8.85,2a5.2,5.2,0,0,1,1-1.94A4.8,4.8,0,0,0,9,0,6,6,0,0,0,3,6v4.29A9,9,0,0,0,0,17H6a3,3,0,0,0,6,0h6A9,9,0,0,0,15,10.29ZM9,18a1,1,0,0,1-1-1h2A1,1,0,0,1,9,18Z"/></g></g><circle class="cls-2" cx="14.04" cy="3.46" r="3.45"/></g></g></svg>