<svg xmlns="http://www.w3.org/2000/svg" viewBox="0 0 195.3 189.46"><defs><style>.cls-1{fill:#fff;}</style></defs><g id="Layer_2" data-name="Layer 2"><g id="Layer_1-2" data-name="Layer 1"><path class="cls-1" d="M39.89,109.69a20,20,0,0,0-19.95,19.94v19.94a20,20,0,0,0,20,20H99.72a20,20,0,0,0,19.94-20V129.63a19.94,19.94,0,0,0-19.94-19.94Zm96.7,4.71,18.83-18.81a20,20,0,0,1,14.1-5.85h5.84a19.94,19.94,0,0,1,19.94,20v59.83a19.94,19.94,0,0,1-19.94,19.94h-5.84a19.94,19.94,0,0,1-14.1-5.84L136.59,164.8a39.89,39.89,0,0,1-36.87,24.66H39.89A39.89,39.89,0,0,1,0,149.57V129.63A39.89,39.89,0,0,1,39.89,89.74H99.72A39.9,39.9,0,0,1,136.59,114.4Zm32.93,55.12h5.84V109.69h-5.84L139.6,139.6ZM92.33,23.72a44.87,44.87,0,1,1-3.85,57.69,49.86,49.86,0,1,1,3.85-57.69ZM49.86,79.77A29.92,29.92,0,1,0,19.94,49.86,29.91,29.91,0,0,0,49.86,79.77Zm74.79,0A24.93,24.93,0,1,0,99.72,54.84,24.93,24.93,0,0,0,124.65,79.77Z"/><polygon class="cls-1" points="89.77 65.03 62.14 98.18 111.06 99.72 89.77 65.03"/></g></g></svg>