<svg xmlns="http://www.w3.org/2000/svg" viewBox="0 0 17.97 16"><defs><style>.cls-1{fill:#fff;}</style></defs><g id="Layer_2" data-name="Layer 2"><g id="Layer_1-2" data-name="Layer 1"><path class="cls-1" d="M7,16a2,2,0,1,1,2-2A2,2,0,0,1,7,16Zm7,0a2,2,0,1,1,2-2A2,2,0,0,1,14,16ZM.93,1.92A1,1,0,0,1,.93,0H2.08A1.93,1.93,0,0,1,4,1.51L5.21,7.15a1.93,1.93,0,0,0,1.88,1.5H14.6L16,2.88H6.7A1,1,0,0,1,6.7,1H16A1.92,1.92,0,0,1,18,2.88a1.84,1.84,0,0,1-.06.47L16.47,9.12a1.92,1.92,0,0,1-1.87,1.46H7.09a3.84,3.84,0,0,1-3.75-3L2.08,1.92Z"/></g></g></svg>