<svg xmlns="http://www.w3.org/2000/svg" viewBox="0 0 16 18"><defs><style>.cls-1{fill:#191919;}</style></defs><g id="Layer_2" data-name="Layer 2"><g id="Layer_1-2" data-name="Layer 1"><path class="cls-1" d="M13.82,9.52a1,1,0,0,0-.3-1.34l0,0-9.93-6A1,1,0,0,0,2,3V15a.93.93,0,0,0,.15.52,1,1,0,0,0,1.39.32l9.93-6a1,1,0,0,0,.32-.32Zm.75,2-9.92,6A3.08,3.08,0,0,1,.46,16.6,2.91,2.91,0,0,1,0,15V3A3,3,0,0,1,3,0a3.09,3.09,0,0,1,1.6.45l9.93,6a2.93,2.93,0,0,1,1,4.09A3,3,0,0,1,14.57,11.52Z"/><polygon class="cls-1" points="16 9 1.43 0.58 1.43 17.41 16 9"/></g></g></svg>