<svg xmlns="http://www.w3.org/2000/svg" viewBox="0 0 20 20"><defs><style>.cls-1{fill:#191919;}</style></defs><g id="Layer_2" data-name="Layer 2"><g id="Layer_1-2" data-name="Layer 1"><path class="cls-1" d="M20,8.16a2.12,2.12,0,0,0,0,3.68l-.72,2.4A2.11,2.11,0,0,0,16.85,16a2.08,2.08,0,0,0,.22,1.34L15,18.9a2.11,2.11,0,0,0-3,.3,2.17,2.17,0,0,0-.41.8H8.34A2.1,2.1,0,0,0,5.77,18.5a2,2,0,0,0-.79.4L2.92,17.28A2.1,2.1,0,0,0,2,14.45a2.13,2.13,0,0,0-1.31-.21L0,11.82A2.1,2.1,0,0,0,1.05,10,2.09,2.09,0,0,0,0,8.18L.71,5.76A2.11,2.11,0,0,0,3.13,4a2.09,2.09,0,0,0-.21-1.3L5,1.1a2.1,2.1,0,0,0,3-.3A2,2,0,0,0,8.34,0h3.29A2.12,2.12,0,0,0,14.2,1.51,2.17,2.17,0,0,0,15,1.1l2.06,1.6a2.1,2.1,0,0,0,.88,2.84,2.08,2.08,0,0,0,1.34.22L20,8.16ZM10,14a4,4,0,1,0-4-4A4,4,0,0,0,10,14Z"/></g></g></svg>