<svg xmlns="http://www.w3.org/2000/svg" viewBox="0 0 18 20"><defs><style>.cls-1{fill:#191919;}</style></defs><g id="Layer_2" data-name="Layer 2"><g id="Layer_1-2" data-name="Layer 1"><path class="cls-1" d="M6,2V1A1,1,0,0,1,7,0h4a1,1,0,0,1,1,1V2h4a2,2,0,0,1,2,2V5a2,2,0,0,1-2,2h-.13l-.68,10.2a3,3,0,0,1-3,2.8H5.83a3,3,0,0,1-3-2.8L2.14,7H2A2,2,0,0,1,0,5V4A2,2,0,0,1,2,2ZM16,4H2V5H16ZM4.14,7l.69,10.07a1,1,0,0,0,1,.93h6.36a1,1,0,0,0,1-.93L13.86,7ZM7,8A1,1,0,0,1,8,9v7a1,1,0,0,1-2,0V9A1,1,0,0,1,7,8Zm4,0a1,1,0,0,1,1,1v7a1,1,0,0,1-2,0V9A1,1,0,0,1,11,8Z"/></g></g></svg>