<svg xmlns="http://www.w3.org/2000/svg" viewBox="0 0 14 20"><defs><style>.cls-1{fill:#fff;}</style></defs><g id="Layer_2" data-name="Layer 2"><g id="Layer_1-2" data-name="Layer 1"><path class="cls-1" d="M3.53,10.07a1,1,0,1,1,.79,1.84l-.05,0A3.58,3.58,0,0,0,2,15.26V17a1,1,0,0,0,1,1h8a1,1,0,0,0,1-1V15.35a3.66,3.66,0,0,0-2.36-3.42A1,1,0,0,1,10.3,10l.06,0A5.65,5.65,0,0,1,14,15.35V17a3,3,0,0,1-3,3H3a3,3,0,0,1-3-3V15.26A5.58,5.58,0,0,1,3.53,10.07ZM7,0a4,4,0,0,1,4,4V6A4,4,0,0,1,3,6V4A4,4,0,0,1,7,0ZM7,2A2,2,0,0,0,5,4V6A2,2,0,0,0,9,6V4A2,2,0,0,0,7,2Z"/></g></g></svg>